{"title":"Jonah.Hex.2010.CAM.XviD.V2-TA","uid":5652453,"size":787784372,"categoryP":"video","categoryS":"movies","magnet":"?xt=urn:btih:069eebc966fb03cbba0c059dd11954372013b7ce&amp;dn=Jonah.Hex.2010.CAM.XviD.V2-TA&amp;tr=udp%3A%2F%2Ftracker.openbittorrent.com%3A80&amp;tr=udp%3A%2F%2Fopen.demonii.com%3A1337&amp;tr=udp%3A%2F%2Ftracker.coppersurfer.tk%3A6969&amp;tr=udp%3A%2F%2Fexodus.desync.com%3A6969","seeders":0,"leechers":0,"uploader":"sceneline","files":5,"time":1277679291,"description":"Jonah.Hex.2010.CAM.XviD.V2-TA\n\n[IMG]http://trackeraccess.org/covers/pics/c658b27eeee9cd1cc30970ce4934ca75.png[/IMG]\n &lt;a href=&quot;\nhttp://www.imdb.com/title/tt1075747/&quot; rel=&quot;nofollow&quot; target=&quot;_NEW&quot;&gt;\nhttp://www.imdb.com/title/tt1075747/&lt;/a&gt;\n\nPlot:\nThe U.S. military makes a scarred bounty hunter with warrants on his own head an offer he cannot refuse: in exchange for his freedom, he must stop a terrorist who is ready to unleash Hell on Earth.\n\n[b]Source                        : SLUGGER (BIG THANKS)[/b]\nComplete name                    : Jonah.Hex.2010.CAM.XviD.V2-TA.avi\nFormat                           : AVI\nFormat/Info                      : Audio Video Interleave\nFile size                        : 712 MiB\nDuration                         : 1h 12mn\nOverall bit rate                 : 1 367 Kbps\nWriting library                  : VirtualDub build 32661/release\n\nVideo\nID                               : 0\nFormat                           : MPEG-4 Visual\nFormat profile                   : AdvancedSimple@L5\nFormat settings, BVOP            : Yes\nFormat settings, QPel            : No\nFormat settings, GMC             : No warppoints\nFormat settings, Matrix          : Default (H.263)\nMuxing mode                      : Packed bitstream\nCodec ID                         : XVID\nCodec ID/Hint                    : XviD\nDuration                         : 1h 12mn\nBit rate                         : 1 195 Kbps\nWidth                            : 640 pixels\nHeight                           : 352 pixels\nDisplay aspect ratio             : 16:9\nFrame rate                       : 29.970 fps\nResolution                       : 24 bits\nColorimetry                      : 4:2:0\nScan type                        : Progressive\nBits/(Pixel*Frame)               : 0.177\nStream size                      : 622 MiB (87%)\nWriting library                  : XviD 1.2.1 (UTC 2008-12-04)\n\nAudio\nID                               : 1\nFormat                           : MPEG Audio\nFormat version                   : Version 1\nFormat profile                   : Layer 3\nCodec ID                         : 55\nCodec ID/Hint                    : MP3\nDuration                         : 1h 12mn\nBit rate mode                    : Constant\nBit rate                         : 160 Kbps\nChannel(s)                       : 2 channels\nSampling rate                    : 44.1 KHz\nResolution                       : 16 bits\nStream size                      : 83.3 MiB (12%)\nAlignment                        : Split accross interleaves\nInterleave, duration             : 33 ms (1.00 video frame)\nInterleave, preload duration     : 500 ms\n\nNotes:\nVersion 2 is the same flickering video but it competely in sync (this time we received the ORIGINAL original file);) and we lightened it up a bit so it's not as dark as previouse version.\n\n\nScreens:\n\nEnjoy,\nTA-rg","torrent":{"xt":"urn:btih:069eebc966fb03cbba0c059dd11954372013b7ce","amp;dn":"Jonah.Hex.2010.CAM.XviD.V2-TA","amp;tr":["udp%3A%2F%2Ftracker.openbittorrent.com%3A80","udp%3A%2F%2Fopen.demonii.com%3A1337","udp%3A%2F%2Ftracker.coppersurfer.tk%3A6969","udp%3A%2F%2Fexodus.desync.com%3A6969"],"infoHash":"069eebc966fb03cbba0c059dd11954372013b7ce","infoHashBuffer":{"type":"Buffer","data":[6,158,235,201,102,251,3,203,186,12,5,157,209,25,84,55,32,19,183,206]},"announce":[],"urlList":[]}}